# xmcd CD database file
#
# Track frame offsets:
#	150
#	19137
#	36302
#	52552
#	71697
#	87895
#	105310
#	122515
#	145365
#	166580
#
# Disc length: 2458 seconds
#
# Revision: 2
# Processed by: cddbd v1.5.2PL0 Copyright (c) Steve Scherf et al.
# Submitted via: CDex 1.51
#
DISCID=7409980a
DTITLE=村下孝蔵 - 野菊よ 僕は…
DYEAR=1989
DGENRE=ポップス
TTITLE0=恋路海岸
TTITLE1=小指
TTITLE2=平凡
TTITLE3=禁じられた遊び
TTITLE4=ソネット
TTITLE5=幸せのメロディー
TTITLE6=野菊よ
TTITLE7=水無月十三夜
TTITLE8=読み人知らず
TTITLE9=おやすみ
EXTD=YEAR: 1989
EXTT0=
EXTT1=
EXTT2=
EXTT3=
EXTT4=
EXTT5=
EXTT6=
EXTT7=
EXTT8=
EXTT9=
PLAYORDER=
